<svg xmlns="http://www.w3.org/2000/svg" width="37" height="45" viewBox="0 0 37 45" fill="none">
  <path fill-rule="evenodd" clip-rule="evenodd" d="M22.7899 4.76431C22.7899 6.68886 21.5086 8.31413 19.7524 8.8335V10.4539H22.6721C25.4604 10.4539 26.8545 10.4539 28.0111 10.6997C32.3572 11.6235 35.7525 15.0188 36.6763 19.3649C36.9221 20.5215 36.9221 21.9156 36.9221 24.7039C36.9221 27.4922 36.9221 28.8863 36.6763 30.0429C36.5429 30.6704 36.358 31.2781 36.1261 31.8614L35.8558 32.6372C34.0672 37.7697 30.1196 41.218 26.9962 42.9809C25.4551 43.8507 24.0173 44.3657 23.0776 44.4107C22.8373 44.4222 22.5699 44.4068 22.323 44.3175C22.0624 44.2233 21.5093 43.944 21.3853 43.5679C21.3717 43.5265 21.3583 43.4878 21.3454 43.4506C21.2504 43.1762 21.1851 42.9878 21.2941 42.4957C21.3487 42.2491 21.7193 41.7334 21.91 41.5147C22.5962 40.5911 22.9068 39.7453 23.0016 38.9539L22.6721 38.9539H14.4221C11.6338 38.9539 10.2397 38.9539 9.08311 38.708C4.73701 37.7842 1.34175 34.389 0.417959 30.0429C0.172119 28.8863 0.172119 27.4922 0.172119 24.7039C0.172119 21.9156 0.172119 20.5215 0.417959 19.3649C1.34175 15.0188 4.73701 11.6235 9.08311 10.6997C10.2397 10.4539 11.6338 10.4539 14.4221 10.4539H17.3417V8.83347C15.5856 8.31408 14.3043 6.68883 14.3043 4.76431C14.3043 2.42106 16.2039 0.521484 18.5471 0.521484C20.8904 0.521484 22.7899 2.42106 22.7899 4.76431ZM13.4726 26.3036C14.4143 26.3036 15.1776 25.5403 15.1776 24.5987C15.1776 23.657 14.4143 22.8937 13.4726 22.8937C12.531 22.8937 11.7676 23.657 11.7676 24.5987C11.7676 25.5403 12.531 26.3036 13.4726 26.3036ZM13.4726 28.5536C15.6569 28.5536 17.4276 26.7829 17.4276 24.5987C17.4276 22.4144 15.6569 20.6437 13.4726 20.6437C11.2883 20.6437 9.51764 22.4144 9.51764 24.5987C9.51764 26.7829 11.2883 28.5536 13.4726 28.5536ZM23.6216 26.3036C24.5633 26.3036 25.3266 25.5403 25.3266 24.5987C25.3266 23.657 24.5633 22.8937 23.6216 22.8937C22.68 22.8937 21.9166 23.657 21.9166 24.5987C21.9166 25.5403 22.68 26.3036 23.6216 26.3036ZM23.6216 28.5536C25.8059 28.5536 27.5766 26.7829 27.5766 24.5987C27.5766 22.4144 25.8059 20.6437 23.6216 20.6437C21.4373 20.6437 19.6666 22.4144 19.6666 24.5987C19.6666 26.7829 21.4373 28.5536 23.6216 28.5536Z" fill="white" fill-opacity="0.13"/>
</svg>