<svg xmlns="http://www.w3.org/2000/svg" width="37" height="45" viewBox="0 0 37 45" fill="none">
  <path fill-rule="evenodd" clip-rule="evenodd" d="M22.7899 4.52408C22.7899 6.44863 21.5086 8.0739 19.7524 8.59327V10.2136H22.6721C25.4604 10.2136 26.8545 10.2136 28.0111 10.4595C32.3572 11.3833 35.7525 14.7785 36.6763 19.1246C36.9221 20.2812 36.9221 21.6754 36.9221 24.4636C36.9221 27.2519 36.9221 28.6461 36.6763 29.8026C36.5429 30.4302 36.358 31.0379 36.1261 31.6211L35.8558 32.397C34.0672 37.5294 30.1196 40.9778 26.9962 42.7406C25.4551 43.6105 24.0173 44.1255 23.0776 44.1705C22.8373 44.182 22.5699 44.1666 22.323 44.0773C22.0624 43.983 21.5093 43.7038 21.3853 43.3276C21.3717 43.2863 21.3583 43.2475 21.3454 43.2103C21.2504 42.936 21.1851 42.7476 21.2941 42.2554C21.3487 42.0089 21.7193 41.4931 21.91 41.2745C22.5962 40.3508 22.9068 39.5051 23.0016 38.7136L22.6721 38.7136H14.4221C11.6338 38.7136 10.2397 38.7136 9.08311 38.4678C4.73701 37.544 1.34175 34.1488 0.417959 29.8026C0.172119 28.6461 0.172119 27.2519 0.172119 24.4636C0.172119 21.6754 0.172119 20.2812 0.417959 19.1246C1.34175 14.7785 4.73701 11.3833 9.08311 10.4595C10.2397 10.2136 11.6338 10.2136 14.4221 10.2136H17.3417V8.59324C15.5856 8.07384 14.3043 6.4486 14.3043 4.52408C14.3043 2.18083 16.2039 0.28125 18.5471 0.28125C20.8904 0.28125 22.7899 2.18083 22.7899 4.52408ZM13.4726 26.0634C14.4143 26.0634 15.1776 25.3001 15.1776 24.3584C15.1776 23.4168 14.4143 22.6534 13.4726 22.6534C12.531 22.6534 11.7676 23.4168 11.7676 24.3584C11.7676 25.3001 12.531 26.0634 13.4726 26.0634ZM13.4726 28.3134C15.6569 28.3134 17.4276 26.5427 17.4276 24.3584C17.4276 22.1742 15.6569 20.4034 13.4726 20.4034C11.2883 20.4034 9.51764 22.1742 9.51764 24.3584C9.51764 26.5427 11.2883 28.3134 13.4726 28.3134ZM23.6216 26.0634C24.5633 26.0634 25.3266 25.3001 25.3266 24.3584C25.3266 23.4168 24.5633 22.6534 23.6216 22.6534C22.68 22.6534 21.9166 23.4168 21.9166 24.3584C21.9166 25.3001 22.68 26.0634 23.6216 26.0634ZM23.6216 28.3134C25.8059 28.3134 27.5766 26.5427 27.5766 24.3584C27.5766 22.1742 25.8059 20.4034 23.6216 20.4034C21.4373 20.4034 19.6666 22.1742 19.6666 24.3584C19.6666 26.5427 21.4373 28.3134 23.6216 28.3134Z" fill="#040404"/>
</svg>