<svg xmlns="http://www.w3.org/2000/svg" width="33" height="32" viewBox="0 0 33 32" fill="none">
  <path fill-rule="evenodd" clip-rule="evenodd" d="M6.64366 5.8563C7.22029 5.27967 8.1552 5.27967 8.73183 5.8563L16.5471 13.6716L24.3624 5.8563C24.939 5.27967 25.8739 5.27967 26.4506 5.8563C27.0272 6.43294 27.0272 7.36784 26.4506 7.94448L18.6353 15.7598L26.4506 23.5751C27.0272 24.1517 27.0272 25.0866 26.4506 25.6632C25.8739 26.2399 24.939 26.2399 24.3624 25.6632L16.5471 17.8479L8.73183 25.6632C8.1552 26.2399 7.22029 26.2399 6.64366 25.6632C6.06702 25.0866 6.06702 24.1517 6.64366 23.5751L14.4589 15.7598L6.64366 7.94448C6.06702 7.36784 6.06702 6.43294 6.64366 5.8563Z" fill="#BFF009"/>
</svg>