<svg xmlns="http://www.w3.org/2000/svg" width="17" height="17" viewBox="0 0 17 17" fill="none">
  <path fill-rule="evenodd" clip-rule="evenodd" d="M2.54688 3.50977C2.13266 3.50977 1.79688 3.84555 1.79688 4.25977V12.7598C1.79688 13.0913 1.92857 13.4092 2.16299 13.6437C2.39741 13.8781 2.71536 14.0098 3.04688 14.0098H14.0469C14.3784 14.0098 14.6963 13.8781 14.9308 13.6436C15.1652 13.4092 15.2969 13.0913 15.2969 12.7598V4.25977C15.2969 3.84555 14.9611 3.50977 14.5469 3.50977H2.54688ZM4.47498 5.00977L8.54688 8.74234L12.6188 5.00977H4.47498ZM3.29688 5.96469V12.5098H13.7969V5.9647L9.05367 10.3126C8.76693 10.5755 8.32683 10.5755 8.04008 10.3126L3.29688 5.96469Z" fill="white"/>
</svg>