<svg xmlns="http://www.w3.org/2000/svg" width="17" height="17" viewBox="0 0 17 17" fill="none">
  <path d="M3.54688 2.50977C3.21535 2.50977 2.89741 2.64146 2.66299 2.87588C2.42857 3.1103 2.29688 3.42824 2.29688 3.75977V13.7598C2.29688 14.0913 2.42857 14.4092 2.66299 14.6436C2.89741 14.8781 3.21536 15.0098 3.54688 15.0098H7.04688C7.46109 15.0098 7.79688 14.674 7.79688 14.2598C7.79688 13.8456 7.46109 13.5098 7.04688 13.5098H3.79688L3.79688 4.00977L7.04688 4.00977C7.46109 4.00977 7.79688 3.67398 7.79688 3.25977C7.79688 2.84555 7.46109 2.50977 7.04688 2.50977H3.54688Z" fill="#E85B56"/>
  <path d="M14.7969 8.75977L14.7969 8.75633L14.7968 8.75286C14.7951 8.56359 14.7218 8.37406 14.5772 8.22944L11.9522 5.60444C11.6593 5.31154 11.1844 5.31154 10.8915 5.60444C10.5987 5.89733 10.5987 6.3722 10.8915 6.6651L12.2362 8.00977H7.04688C6.63266 8.00977 6.29688 8.34555 6.29688 8.75977C6.29688 9.17398 6.63266 9.50977 7.04688 9.50977H12.2362L10.8915 10.8544C10.5987 11.1473 10.5987 11.6222 10.8915 11.9151C11.1844 12.208 11.6593 12.208 11.9522 11.9151L14.5772 9.2901C14.7144 9.15291 14.7874 8.9752 14.796 8.79567C14.7966 8.78371 14.7969 8.77174 14.7969 8.75977Z" fill="#E85B56"/>
</svg>