<svg xmlns="http://www.w3.org/2000/svg" width="20" height="20" viewBox="0 0 20 20" fill="none">
  <path fill-rule="evenodd" clip-rule="evenodd" d="M1.5625 10C1.5625 5.3401 5.3401 1.5625 10 1.5625C14.6599 1.5625 18.4375 5.3401 18.4375 10C18.4375 14.6599 14.6599 18.4375 10 18.4375C5.3401 18.4375 1.5625 14.6599 1.5625 10ZM9.84375 5.3125C9.15339 5.3125 8.59375 5.87214 8.59375 6.5625C8.59375 7.25286 9.15339 7.8125 9.84375 7.8125C10.5341 7.8125 11.0938 7.25286 11.0938 6.5625C11.0938 5.87214 10.5341 5.3125 9.84375 5.3125ZM8.4375 9.375C8.4375 8.85723 8.85723 8.4375 9.375 8.4375H10C10.5178 8.4375 10.9375 8.85723 10.9375 9.375V12.8658C11.3016 12.9945 11.5625 13.3418 11.5625 13.75C11.5625 14.2678 11.1428 14.6875 10.625 14.6875H10C9.48223 14.6875 9.0625 14.2678 9.0625 13.75V10.2592C8.69838 10.1305 8.4375 9.78319 8.4375 9.375Z" fill="#EB807A"/>
</svg>