<svg xmlns="http://www.w3.org/2000/svg" width="20" height="21" viewBox="0 0 20 21" fill="none">
  <path fill-rule="evenodd" clip-rule="evenodd" d="M1.5625 10.7598C1.5625 6.09986 5.3401 2.32227 10 2.32227C14.6599 2.32227 18.4375 6.09986 18.4375 10.7598C18.4375 15.4197 14.6599 19.1973 10 19.1973C5.3401 19.1973 1.5625 15.4197 1.5625 10.7598ZM9.84375 6.07227C9.15339 6.07227 8.59375 6.63191 8.59375 7.32227C8.59375 8.01262 9.15339 8.57227 9.84375 8.57227C10.5341 8.57227 11.0938 8.01262 11.0938 7.32227C11.0938 6.63191 10.5341 6.07227 9.84375 6.07227ZM8.4375 10.1348C8.4375 9.617 8.85723 9.19727 9.375 9.19727H10C10.5178 9.19727 10.9375 9.617 10.9375 10.1348V13.6256C11.3016 13.7543 11.5625 14.1016 11.5625 14.5098C11.5625 15.0275 11.1428 15.4473 10.625 15.4473H10C9.48223 15.4473 9.0625 15.0275 9.0625 14.5098V11.0189C8.69838 10.8902 8.4375 10.543 8.4375 10.1348Z" fill="#57CF3F"/>
</svg>