<svg xmlns="http://www.w3.org/2000/svg" width="31" height="31" viewBox="0 0 31 31" fill="none">
  <path d="M13.6721 8.25977C13.6721 7.22423 14.5116 6.38477 15.5471 6.38477C16.5827 6.38477 17.4221 7.22423 17.4221 8.25977C17.4221 9.2953 16.5827 10.1348 15.5471 10.1348C14.5116 10.1348 13.6721 9.2953 13.6721 8.25977Z" fill="#040404"/>
  <path d="M13.6721 15.7598C13.6721 14.7242 14.5116 13.8848 15.5471 13.8848C16.5827 13.8848 17.4221 14.7242 17.4221 15.7598C17.4221 16.7953 16.5827 17.6348 15.5471 17.6348C14.5116 17.6348 13.6721 16.7953 13.6721 15.7598Z" fill="#040404"/>
  <path d="M13.6721 23.2598C13.6721 22.2242 14.5116 21.3848 15.5471 21.3848C16.5827 21.3848 17.4221 22.2242 17.4221 23.2598C17.4221 24.2953 16.5827 25.1348 15.5471 25.1348C14.5116 25.1348 13.6721 24.2953 13.6721 23.2598Z" fill="#040404"/>
</svg>