<svg xmlns="http://www.w3.org/2000/svg" width="17" height="17" viewBox="0 0 17 17" fill="none">
  <path fill-rule="evenodd" clip-rule="evenodd" d="M3.51654 3.72944C3.80944 3.43654 4.28431 3.43654 4.57721 3.72944L8.54688 7.6991L12.5165 3.72944C12.8094 3.43654 13.2843 3.43654 13.5772 3.72944C13.8701 4.02233 13.8701 4.4972 13.5772 4.7901L9.60754 8.75977L13.5772 12.7294C13.8701 13.0223 13.8701 13.4972 13.5772 13.7901C13.2843 14.083 12.8094 14.083 12.5165 13.7901L8.54688 9.82043L4.57721 13.7901C4.28431 14.083 3.80944 14.083 3.51655 13.7901C3.22365 13.4972 3.22365 13.0223 3.51654 12.7294L7.48621 8.75977L3.51654 4.7901C3.22365 4.4972 3.22365 4.02233 3.51654 3.72944Z" fill="white" fill-opacity="0.55"/>
</svg>