<svg xmlns="http://www.w3.org/2000/svg" width="17" height="17" viewBox="0 0 17 17" fill="none">
  <path fill-rule="evenodd" clip-rule="evenodd" d="M14.1378 2.27244C13.9231 2.21753 13.6977 2.22097 13.4849 2.28237L13.484 2.28263L1.84293 5.56137L1.84049 5.56204C1.59366 5.63012 1.37367 5.77236 1.21029 5.96957C1.04631 6.16749 0.94733 6.41116 0.926833 6.66736C0.906337 6.92357 0.965319 7.17987 1.09574 7.40135C1.22498 7.6208 1.41813 7.79549 1.64929 7.90211L6.91398 10.393L9.40427 15.6564L9.40485 15.6576C9.51147 15.8888 9.68617 16.082 9.90564 16.2112C10.1271 16.3417 10.3834 16.4006 10.6396 16.3802C10.8958 16.3597 11.1395 16.2607 11.3374 16.0967C11.5346 15.9333 11.6769 15.7131 11.745 15.4662L11.7452 15.4656L11.7456 15.4641L15.0243 3.82307L15.0246 3.82207C15.086 3.60923 15.0895 3.38382 15.0345 3.16917C14.9793 2.953 14.8668 2.7557 14.7091 2.59793C14.5513 2.44016 14.354 2.32773 14.1378 2.27244ZM8.38107 9.9865L10.4803 14.4235L13.459 3.84803L2.88349 6.82663L7.32038 8.92586L9.77316 6.47309C10.066 6.18019 10.5409 6.18019 10.8338 6.47309C11.1267 6.76598 11.1267 7.24085 10.8338 7.53375L8.38107 9.9865Z" fill="white" fill-opacity="0.13"/>
</svg>