<svg xmlns="http://www.w3.org/2000/svg" width="17" height="17" viewBox="0 0 17 17" fill="none">
  <path fill-rule="evenodd" clip-rule="evenodd" d="M14.1373 1.75291C13.9227 1.698 13.6972 1.70144 13.4844 1.76283L13.4835 1.7631L1.84244 5.04184L1.84 5.04251C1.59317 5.11059 1.37318 5.25283 1.2098 5.45004C1.04582 5.64796 0.946842 5.89162 0.926345 6.14783C0.905848 6.40404 0.964831 6.66034 1.09526 6.88181C1.22449 7.10127 1.41764 7.27596 1.6488 7.38258L6.91349 9.87347L9.40378 15.1369L9.40436 15.1381C9.51098 15.3693 9.68568 15.5625 9.90515 15.6917C10.1266 15.8221 10.3829 15.8811 10.6391 15.8606C10.8953 15.8401 11.139 15.7411 11.3369 15.5772C11.5341 15.4138 11.6765 15.1936 11.7445 14.9467L11.7447 14.9461L11.7451 14.9446L15.0239 3.30354L15.0241 3.30254C15.0855 3.0897 15.089 2.86429 15.0341 2.64964C14.9788 2.43347 14.8663 2.23617 14.7086 2.0784C14.5508 1.92063 14.3535 1.8082 14.1373 1.75291ZM8.38058 9.46696L10.4799 13.9039L13.4585 3.3285L2.883 6.3071L7.31989 8.40633L9.77267 5.95356C10.0656 5.66066 10.5404 5.66066 10.8333 5.95356C11.1262 6.24645 11.1262 6.72132 10.8333 7.01422L8.38058 9.46696Z" fill="white"/>
</svg>